<svg aria-hidden="true" style="position: absolute; width: 0; height: 0; overflow: hidden;" version="1.1" xmlns="http://www.w3.org/2000/svg" xmlns:xlink="http://www.w3.org/1999/xlink">
<defs>
<symbol id="icon-grid-view" viewBox="0 0 24 24">
<title>grid-view</title>
<path d="M3 13h8V3H3v10zm0 8h8v-6H3v6zm10 0h8V11h-8v10zm0-18v6h8V3h-8z"/>
</symbol>
<symbol id="icon-list-view" viewBox="0 0 24 24">
<title>list-view</title>
<path d="M21,8H3V4h18V8z M21,10H3v4h18V10z M21,16H3v4h18V16z"/>
</symbol>
<symbol id="icon-tune" viewBox="0 0 24 24">
<title>tune</title>
<path d="M15 9v-6h2.016v2.016h3.984v1.969h-3.984v2.016h-2.016zM21 12.984h-9.984v-1.969h9.984v1.969zM6.984 9h2.016v6h-2.016v-2.016h-3.984v-1.969h3.984v-2.016zM12.984 21h-1.969v-6h1.969v2.016h8.016v1.969h-8.016v2.016zM3 5.016h9.984v1.969h-9.984v-1.969zM3 17.016h6v1.969h-6v-1.969z"></path>
</symbol>
<symbol id="icon-fullscreen-exit" viewBox="0 0 24 24">
<title>fullscreen-exit</title>
<path d="M15.343 8.657h2.517v1.652h-4.168v-4.168h1.652v2.517zM13.691 17.859v-4.168h4.168v1.652h-2.517v2.517h-1.652zM8.657 8.657v-2.517h1.652v4.168h-4.168v-1.652h2.517zM6.141 15.343v-1.652h4.168v4.168h-1.652v-2.517h-2.517z"></path>
</symbol>
<symbol id="icon-fullscreen" viewBox="0 0 24 24">
<title>fullscreen</title>
<path d="M13.691 6.141h4.168v4.168h-1.652v-2.517h-2.517v-1.652zM16.208 16.208v-2.517h1.652v4.168h-4.168v-1.652h2.517zM6.141 10.309v-4.168h4.168v1.652h-2.517v2.517h-1.652zM7.792 13.691v2.517h2.517v1.652h-4.168v-4.168h1.652z"></path>
</symbol>
<symbol id="icon-arrow-right" viewBox="0 0 24 24">
<title>arrow-right</title>
<path d="M17.442 11.118l-5.353-5.353 1.247-1.247 7.482 7.482-7.482 7.482-1.247-1.247 5.353-5.353h-14.26v-1.764z"></path>
</symbol>
<symbol id="icon-arrow-left" viewBox="0 0 24 24">
<title>arrow-left</title>
<path d="M6.503 11.109l5.407-5.407-1.259-1.259-7.557 7.557 7.557 7.557 1.259-1.259-5.407-5.407h14.403v-1.781h-14.403z"></path>
</symbol>
<symbol id="icon-annotations-on" viewBox="0 0 24 24">
<title>annotations-on</title>
<path d="M13.661 8.821l-0.911 2.429-0.911-2.429-1.714-0.571 1.714-0.571 0.911-2.429 0.911 2.429 1.714 0.571-1.714 0.571zM16.661 13.679l-0.911-2.429-0.911 2.429-1.714 0.571 1.714 0.571 0.911 2.429 0.911-2.429 1.714-0.571-1.714-0.571zM11.127 16.748c-0.448 1.794-2.070 3.123-4.002 3.123-2.278 0-4.125-1.847-4.125-4.125 0-1.932 1.329-3.555 3.123-4.002 0.264-0.066 0.537-0.106 0.818-0.119-0.123 0.351-0.191 0.728-0.191 1.121 0 1.864 1.511 3.375 3.375 3.375 0.393 0 0.77-0.067 1.121-0.191-0.012 0.281-0.053 0.554-0.119 0.818v0zM20.151 9.321l1.224 0.429-1.224 0.429-0.651 1.821-0.651-1.821-1.224-0.429 1.224-0.429 0.651-1.821 0.651 1.821z"></path>
</symbol>
<symbol id="icon-annotations-off" viewBox="0 0 24 24">
<title>annotations-off</title>
<path d="M13.661 8.821l-0.911 2.429-0.911-2.429-1.714-0.571 1.714-0.571 0.911-2.429 0.911 2.429 1.714 0.571-1.714 0.571zM16.661 13.679l-0.911-2.429-0.911 2.429-1.714 0.571 1.714 0.571 0.911 2.429 0.911-2.429 1.714-0.571-1.714-0.571zM11.127 16.748v0c0.066-0.264 0.106-0.537 0.119-0.818-0.351 0.123-0.728 0.191-1.121 0.191-1.864 0-3.375-1.511-3.375-3.375 0-0.393 0.067-0.77 0.191-1.121-0.281 0.012-0.554 0.053-0.818 0.119-1.794 0.448-3.123 2.070-3.123 4.002 0 2.278 1.847 4.125 4.125 4.125 1.932 0 3.555-1.329 4.002-3.123zM3.75 15.746c0-1.471 0.941-2.722 2.254-3.184-0.003 0.061-0.004 0.123-0.004 0.184 0 2.278 1.847 4.125 4.125 4.125 0.062 0 0.123-0.001 0.184-0.004-0.462 1.313-1.713 2.254-3.184 2.254-1.864 0-3.375-1.511-3.375-3.375v0zM20.151 9.321l1.224 0.429-1.224 0.429-0.651 1.821-0.651-1.821-1.224-0.429 1.224-0.429 0.651-1.821 0.651 1.821z"></path>
</symbol>
<symbol id="icon-external-link" viewBox="0 0 24 24">
<title>external-link</title>
<path d="M17 13v6c0 0.276-0.111 0.525-0.293 0.707s-0.431 0.293-0.707 0.293h-11c-0.276 0-0.525-0.111-0.707-0.293s-0.293-0.431-0.293-0.707v-11c0-0.276 0.111-0.525 0.293-0.707s0.431-0.293 0.707-0.293h6c0.552 0 1-0.448 1-1s-0.448-1-1-1h-6c-0.828 0-1.58 0.337-2.121 0.879s-0.879 1.293-0.879 2.121v11c0 0.828 0.337 1.58 0.879 2.121s1.293 0.879 2.121 0.879h11c0.828 0 1.58-0.337 2.121-0.879s0.879-1.293 0.879-2.121v-6c0-0.552-0.448-1-1-1s-1 0.448-1 1zM10.707 14.707l9.293-9.293v3.586c0 0.552 0.448 1 1 1s1-0.448 1-1v-6c0-0.136-0.027-0.265-0.076-0.383s-0.121-0.228-0.216-0.323c-0.001-0.001-0.001-0.001-0.002-0.002-0.092-0.092-0.202-0.166-0.323-0.216-0.118-0.049-0.247-0.076-0.383-0.076h-6c-0.552 0-1 0.448-1 1s0.448 1 1 1h3.586l-9.293 9.293c-0.391 0.391-0.391 1.024 0 1.414s1.024 0.391 1.414 0z"></path>
</symbol>
</defs>
</svg>
