<svg id="Ebene_1" data-name="Ebene 1" xmlns="http://www.w3.org/2000/svg" width="3840" viewBox="0 0 587 1024">
  <defs>
    <style>
      .cls-1 {
        opacity: 1;
				filter: url(#n);
      }
			
			.test {
				filter: url(#n);
			}

      .cls-2 {
        fill: #fff;
      }
    </style>
		<filter id='n' x='0' y='0' filterUnits="userSpaceOnUse">
			<feTurbulence type="turbulence" baseFrequency="1" numOctaves="2" result="turbulence"/>
			<feTurbulence type="turbulence" baseFrequency="1" numOctaves="20" result="subtracter"/>
			<feComposite in="turbulence" in2="subtracter" operator="in" result="turbulence"/>
			
			<feTurbulence type="fractalNoise" baseFrequency="0.02" result="turbulence2"/>
			<feComposite in="turbulence" in2="turbulence2" operator="in" result="noise"/>
			<feColorMatrix in="noise" result="test"
        type="matrix"
        values="0 0 1 0 0
                0 0 1 0 0
                0 0 1 0 0
                0 0 0 1 0" />
			
			<feMorphology in="SourceGraphic" operator="dilate" radius="5" result="SourceGraphicLarger"/>
			<feGaussianBlur in="SourceGraphicLarger" stdDeviation="5" edgeMode="wrap" result="SourceGraphicBlured" />
			
			<feComposite in="test" in2="test2" operator="in" result="comp"/>
    </filter>
  </defs>
  <g>
    <g class="cls-1 test">
      <path class="cls-2" d="M164,0l-5,3-5,10-7,7,3,15-8,9,5,10v4l7,7,1,3v6l-7,11-1,8,1,3,4,3h8l12,10,5,8v6l12,14-3,12,7,5,3,6-2,15-3,3-13-3-2-2,2-6-17-1-3-1-5-5h-2l-14-16V133l-4-6,1-1-4-4-8-2-2,7,5,7,2,8,4,6,10,9,7,3v2l6,8,4,2h10l19,8h6l6,8,8,3,13-1,3-3,1-6,11-7,19-3,10,4,10,10-1,8,6,4,5,17,11,13,4,12-1,1,5,3,1,5,6,7v2l8,6v5l6,8v2l10,10,1,9,5-1,8,6h2l5,5,6,2,5,5,5,1,2,2h10l8,8,1-1-4-6v-7l-17,2-5-5-9-1-8-10v-4l-2-3h-4l-8-4v-7l-2-2-1-5-4-1-3-3-1-7,2-8,10-7,9,5,8,11,12,10v3l3,3,1,5,5,1,9-3,17,7,13,11,13-2,11,5v2l3,3,7-2,16,13,8,1,7,3,28,24,12,4,6-1,4,2,1,3h2l3,4v16l-4,7-11,3H507l-6-2-6,6-2,4,1,1,18,3,8-2,6-4,6-1,11,4,8,5,11,2,4,4v6l3,8,15,1,3,3v11l-2,2-4,22-7,3-6-1-4-3-1-3h-2l-16-13h-4l-2,2-1,5v4l3,5,6,6,6,3,3,3v2l3,1,3,8-1,11,4,10v4l10,8,3,6,1,8-6,9v4l-5,5H558l1,5,4,2,1-2,8-1,4,2,4,6v24l-5,18,1,4-4,14,1,10-2,2v5l-12,20-4,1-8,10-7,2-9-6v-8l3-9v-7l-3-3h-6l-14-10h-2l-3,1-17,16-5,7,2,4h6l4,5-2,2-1,5-5,5-5,1-10,10,3,3h12l12,13v4l-3,2h-4l-8-5h-4l-3,3v2l-3,3-3,15,1,9,3,3-1,10-11,12v2h-2l-18,17v4l-6,6-1,5-3,3-2,6-9,9-11,4-11,12-10-2-13-6-1,1-16-2-8,6h-2l-7,7-11,1-10,4-1-1-2,2-1-1-7,3v2l-4,2-18,5-6,7v2l-5,4-3,8-21,20-11,5-1-1-18,4-2,2-1-1-7,13-5,5-7,3-15,17-6,12-5,14,1,1-2,4v8l-2,2v10l-5,10,1,18-3,12-3,3-154-1-2-3,4-14-2-2V987l3-6-2-7,1-5,5-9,4-2,3-5h2l5-6,5-2,4-5,13-4,3-3h2l4-5,5-1,5-5,7-2,21-18,19-8,18-14,7-1,20-12,2-2-3-7,2-4v-6l4-4h4l5-4,13,1,6,2,6-2,7-6,9,3,15-17,1,1,14-4,3-4,3-9,2-1,5-1,8,2h16l9-3,6-6h2l2-5,7-8v-2l6-6,9,2,5,5,8-4,15-16v-2l3-1v-2h2l11-12v-2l6-4,17,11h2l7-6,4-1,5-5,17-6,11-9h4l4-4,5-12,3-3-2-23,9-7V661l2-2,1-7,7-10,6-15,9-8,5-33,5-5,2-6,10-12,4-9v-4l3-4-2-5h-4l-6-7h-2l-3-3-3-7-15-14-4-8-1-5,4-11V472l-3-17-2-4,2-8-3-3v-2l-27-14-5-5-2-6-5-6-8-8-5-1-8-9h-2l-7-7-12-6-3-3-6-2-5-5-1-3-14-5v-2l-10-9v-2l-3-3h-2l-1-5-2-2h-2l-9-9-12-5-5-6-48,1-7-3-11,1-10-8-16,1-8-2-19-17-5-2-21-23-8-6h-2v-2l-9-10-2-10-6-15-8-1-12,3-12-4-3,1-5-4-5-2-2,1-2-2H94l-11-5L62,192l-9-11-3-9,2-33-5-7,1-3-5-8V108l-3-6,1-5L35,79l-7-6L8,63V61L1,56,0,28l2-5L12,13,9,0ZM109,34V28h-2l-6-5L85,21l-3,2v4h2v2l5,3v4l5,11,4,2,9-3,4-4-2-3ZM412,341l-4-2v-2l-5-6-10-5,10,8,3,9h6l2,2,1-1,17,12,1-1,5,2-14-9-1,1ZM208,216l-11-2-3,3-7-5-1,1,2,6,5,1,5,4,7-1,4-6Zm18,10-3-1-3-5-1,1v6l5,5,8-2Zm31,7-6-2-1,1,3,6h2l3-3v-2Zm44,40-4,3,2,4,3-1v-5Zm-80-75h-4v4l3,3,3-1-2-5Zm19,41-3-1-3,1v2h6Z"/>
    </g>
    <g class="cls-1">
      <path class="cls-2" d="M150,136l-2-1v4l-2,2,1,3,4-2-1-5Zm1,14,8,7h6l3-5-1-5v-1h-2l-4-5-10,5Zm65,58v-2h-2l-4-2,2,6Zm-44-13-2,3,6,6,7-1,2-4,1,9h4v-4l2-1v-2l-6-6-1-3h-1l-2-2h-4l-3,5Zm10-37,9,8,3-3-1-3-6-4-2,2ZM290,836v-3l-1,3Zm-2,1,1-1h-4ZM212,171v-2l-2,1Zm-81,846v-3h-2v2ZM532,392h-1l1,2ZM72,10H71L69,9v4l3-1Zm81,128,2-4-2-2-2,2Zm-3,826h-1l1,2Zm44-62v-1h-3l2,2Zm76-55-1-1v2ZM107,86v2l2,3,10,1,2-1V84l3-2,2,1,2,5,9,5,1-3-2-8-9-10-5-1-6,8Zm-8-6-1,4,2,2h4V81h-1Zm5-19-1,4,4,3h2l6-5,6,3,2-2V60l-8-5-5,6ZM347,280h-4l-2,5,11-1,3,3,1,7,5,3v2h2l1-3h2l2,4-5,4v2l16-3v-2l2,2,3-1,1-1-3-3-11,2v-2l-4-4,1-5-5-5v-2h-2l-3-3v-5l-4,2-2-3h-4l2,4Zm-37-2h2l-1-3Zm12,3h-1l-1,2,3,3,2-2Zm-28-15-2,2,4,4,1-2-2-4ZM513,371l5-1v-4l-2-2-1-1-3,2Zm17,44,2-2-1-5h-1l-3-1-4,6Zm16-12-2-4h-1l-1,2Z"/>
      <path class="cls-2" d="M372,292l3-3-1-1-4,2Zm121,59,7,1-5,5v11l1-1v2l4-2v4l3,1,5-5-1-3,7-5-2-4h-4l-9-8-6,2Zm48,131,4,3,3,6,4-2v-4h-1l-5-8h-2l-3,3ZM334,262h2l-1-3v1Zm11,7,2-2-4-4-4-1-1,3Zm-49-13,3-1-1-3-3,3Zm-84-57,1-3-2-1-1,3ZM552,422l4-2-1-7h-1l-5,6ZM288,832l3-1-1-5-4,4ZM549,434l3,1,3-6,7,4,2-2-1-5h-1l-10-1-2,2Zm-8-4,1-2-2,1ZM209,199l-4-2v-1h-3l-5,7v4l2,2h5l4-5ZM540,418v-1l-1-2h-2l-2,4,3,3,3-3ZM430,740l-2,2,5,2v-1Zm6,5v2l1-1Zm-37,26-1,3h2l1-2Zm32-36-3,1,2,2,1-1ZM261,812l-2-3-2,2,2,2,1-1Zm169-61,1,1,1-1ZM548,580v-1l-3-1,2,4,2-1Zm-2-29-2-1,2,4,1-3ZM461,728l6-5,2-4-1-5-5,6-1-1-4,4-3-1-2,3,2,4-1,5,7-2Zm-5,1,4-2-1,2v1Zm73-117h1v-3l-3-4-3,1v8l3,1,2-1ZM149,927v-1l-1-3-3-1-2,4,3,2ZM111,119l6-2,2-3,4-2v-8l-10-4-8,1-5-7H96l-6-3-1-9h3l3-3-2-9,4-2,4-5V55L90,45,87,33l-6-4L74,19l-4-1-3,5V37l7,4,1,2,1,6-2,7,8,12-4,2-3,8,6,18-3,4,1,9,5,4,5-2,1,3,7,1,7,7h2l4-4ZM85,99l7,1,1,1,1,2-4,2ZM262,820l-1-3-1,3ZM152,913l3-6v-4l-6-4h-2l-6,8h-2l-3,3v2l4,4,3,1,9-3Zm-29,109-2-2-1-5,2-6,9-3,2-6,1-10,3-8-3-2-1,1,1-3,5-7,1-5,8-6,1-7-4-4-4,6-2,7h-4l-3-3,1-1-2-5-10-10v-2l4-4-1-4-7-5-4-1-2,4,1,1-2,2-5-1-8,10-6,3,2,19-2,5,3,3,2-1,3,10,6,9v4l-3,4v4l-4-2-5,3-1,7-6,8v4h36Zm60-135,3-3v-2l-3-3-4-1-1-5-4-2-2,2,1,17,4,2,6-4Zm35-11-1,3,2,2h4l3-3v-2l-3-1,2-2,3,1,1,3h2l2-2h3v-4l4,3h-2v2l3,1-1-4,4-2-2-4,3-3,6,4,1-3-2-2,6-4,3,1,2-2v-5l4-7h2l-6-2,9-4-2-4,2-2v-4l1-2h1v-4h-4l-3,3,3,3-1,3-4,2-1-1-8,2-2-4-1,3h-2l-3-5-7,2-5-7h-2l-1,2,4,6v4l-1-1-2,2,2,4h9l3,3-1,1-2-2-8,6h-2l-2,6,2,2-2,1h-2l-1-3h-2l-3,5h-2l-3-3-6,2,2,4-1,4,7,8Zm21-40v-2l1,1,1,1Zm7,0,1,2v1Zm-51,20-2-4,2-2-3-1-1,5-3,1-1,3,3,1,4-2Z"/>
      <path class="cls-2" d="M252,827h1l6-5-4-1-3,2-3-3v8Zm-23,27,1-2-3-1-2,3ZM563,532v-1l-5-4-7,1v2l7,6h4l2-3ZM247,239l-2,1,2,2Zm43,60-1-3h-1v3Z"/>
      <path class="cls-2" d="M286,287l2-3,8-5-1-7H283l-1-1,8-4-4-8-7,3-3-3h-2l-3,3-3-3-3,1v-5l-2-2-3,1-2-2v-4l3,3h4l3,3,7-1,3,4,7,1,9-7-1-3,3-3-1-3,2-2-6-6h-2v-4l-5-5-2-5h-2l-5-5-2-4h-2l-4,4,1,14-3,4h-6v2l-7,7h-2l4,2v-2l2,2-5,5v2h-2l-1-4-4-3h-6l-5,3-6-8-4-2h-2l-4,4h-6l-8-6,5-1,3,3,2-2v-2l-3-3,2-3-1-1-11,4-6-4h-8l-2-4-6,2-6-3-7-1-6,4v4l5,7h4l2-4,5-2,1,8,11,2,3,5,3,1,1,9,7,5v4l16,9,1,5,3-1,3,5h4v2l5,5,2-2,5,3v2l3,1,5-3,2,1,2-2,4,2,3-3h2l3,3-5,1,2,4,3-3,6,4h11l5-5Zm-16-53,2-2v2Zm-18,20v-1l2,2Zm16,14,4-2v2Zm1,32h1l-1-2Z"/>
      <path class="cls-2" d="M232,225l3-1,3,3-2,6,2,4,8-2,3-4V219l2,8-1,1,3,4h4l2-3,5-1-2-11,1-3-4-4h-2l2-4-5-1-1-3h-1l-11-3-4,2-3-3h-2v2l3,3,1-1,2,2-4,2-2-2h-4l-6,6-1,5,2,4,4,4Zm28-1-1,1-3-1,2-2ZM570,518l-1-1v-1l-2-8-11-10-4,4v5l-5,3,1,3,6,2,5,10,6-1ZM107,158v-2h-1l-1-2H99v-8l-4-4-2-1-2,2v8l2,2,5,1-2,5,1,5,5-1Z"/>
      <path class="cls-2" d="M165,212l4-1,2-3-6-2-3-3-2-7,1-10,3-3,7,4-4,7h2l5-4v-2h6l-1-5h-2l-3,3-6-2v-2l-8-7-7-1-4-4h-6l-6-7v-2l-12-10-1-5-6-9h-4l-2,2-1-1,4-4v-4l-1-3h-4l-3,5,1,6-2,2v4l6,6v4l3,4-3,12-4,2-2,3,2,2-1,2,9,7,4-2,4,4h4l2,2-1,5,7,5-4,4v2l7,6,5-3h4v2l6,3,4-3,4,6Zm-46.8-58.6,1.8.6h-3l1.2-.6L117,153l1.33.33L121,152v2l-2.67-.67ZM116,177l1-1v2Zm98,36v2h-2v-2ZM519,485l-4-2v-2l6,2,6-7-4-4,1-3,6,1,6,6,4-1,4-5-8-8V450l-2-8-6-3,5-5v-6l-2-2v-1l-7-1-3-3-6-1,7-7v-2l-3-3h-2l-3,3-5-7-7,1-8-3v-2h8l-1-5h-6l-3,5-3-3,2-12-7-1,4-6-1-5-2-2,5-10-6-4-3,2-2-9,1-1-7-1,2,6-2,4h-2v12l2,5-6,7v2l4,4-1,1-4-2-4,4,4,6-4,7,7,3v8l5,7h2l-1,1,2,2v6l3,4,2-1,2,4,5,1-3,3-4-1v4h4l1,3,7,4,1,1-2,2,12,13h2l2,10,5,8v6l5-3ZM475,359l2,1v-1l2,2-2,2Zm1,39v-2l8-1,2,1-1,3Zm4,13,2,1h1l1,5-2,2Zm45,19h-1l1-1v1h1l-1,1Zm-9,43h3l1,2-3,1ZM455,351h4l7-10,3,5h2l3-3v-3l-3-3-7-3v-1l-6-2-5,1-1-8-10-2-7-4-6,2-11-9h-2l-1-4-2,1v2l-4,2v2l-3,3v-7l-4,1-2,2v6l-3,1,2,4,2-5,4,2v4l5,3-1,5,7,5v3l3,2,1-1,6,2,5,7,2-2,11,5,4,4h2l3-3Zm-59-19-1,1,1,1ZM279,298l1,2v-2ZM83,142v-1H78l-3,5,2,2h4l4-5ZM443,389v-4l6,2,1-5h-6l2-6-6-5-1-2-4,2-5-1-3,3v2l4,4,4-2,4,4v8l4,2v2l3,3,2-4ZM343,326v2l3,1-1-3Zm29-14,3-1-1-3v1h-3Z"/>
      <path class="cls-2" d="M394,338l-3-8-1,1-4-2-4-6-2,2-2-4h-2l-3,3-7-7h-1l-6-1-3,3v-6l-4-2-5,3-5-1-1-1,6-3,1-3-7,1,1-5-3-3-7,3-2-4v-6l-2-2-4,2-1,4-7-6,1-5h2v-2l-4-4-4,3-13-1-3,3,1,3-3,3-3-1-3,2,3,3,5-2,2,1v4l3,1v2l5,4,9-2,2-4h2l3,3-1,1,2,6,2,2-1,6,5,1,2-4,3,1,4,8,4-1,5,5h6l3,2v2l-3,3,2,2,2-1v-3l3-3-1-3,3,4,1,7,6-2,1,3,1-1v3l13,1,3,5,7-5Zm-61-26v-2l1,1,1,1ZM80,19l8,1,6-2,3,2h6l9,11-2,3,1,5h4l3-2,5,1,3-3V33L115,17l1-5-3-4h-4l6-6h5l2-2H108l-6,5h-2L97,2,91,1,90,0H85l2,5H85L82,1,81,0H75V12Z"/>
    </g>
    <g class="cls-1">
      <path class="cls-2" d="M245,246l6,8v2h2l5,7,6-2,5,3-2,3,2,4,7-1-4-6,1-3h2l3,3,1,9h10l4,2,1,3-7,4-1,3-8,2-2,6-3-3,1-4,3-1-2-2-14,2-3-1-4-6h-2l-3,3-1-1-1,5-5-1,1-4-3,3h-2l-1-3h-2l-4-6-1,1-7-3-6-6-6-2-4-5-4-2-3-5,1-3-2-3-1-9,3-1,10,8,7-1,3-3h4l7,8,10-3,2,1Zm31-25,5,5h2l3,9,6,5,1,3-2,4-4-2,2,2v4l-5,5-6-2,3-2-1-1-5-1-6,2-2-2-5-1-5-6v-4h4l3-5,8,2,4-4-1-1,2-8h-4l-2,4-2-2,1-2h2l1-3ZM428,323l11,2-1,3,3,4,3-3,3,1,7,7,5,10-2,2H447l-2,1v2l-8-2-2-5,4-3-1-5-3-3-5-1-6,4-5-5h-2l-3,3-2-2-1-7-4-2v-2l7-5,10,2Zm93,107,1,7,10,11-2,4,1,5-4,4h-2l-3-3V446h-2l-3,6h-4l-1-3-11-1-2-2-1-4-4-3,1-5-3-3v-2l-7-1-2-2v-4l8-7-5-5-7-1-5-5v-2l9-1,5,1,6,4,15,2v6l-3,3h-2l-5-5-4,4v2l15,2,3,3h2ZM90,1024v-4l6-9-1-3,3-3,3,3h3l2-11,3-3-1-4-7-10-1-17,2-4-3-3v-6l11-12,6-2,2,2v6l-2,5,3,3,1-1,5,3h4l1,3-1,8-3,1-3,4v2l3,1v2l-3,3,8,9-4,9v1l-7,4v6l-1,4-3,3,1,5-2,3-5-1-2,1v2ZM252,208l3,5,5,1v4l-6-3v4h-4l-2-2-2,2,1,5-5,3,4,3,1-1-1-1-1,4-4,2h-2v-4l2-3-4-6-2,2h-4l-6-4v-4h2l-2-4,4-4h8l8-3,3,3Zm-91-30,1,3-3,5v7l-3,7,4,3v2l-2,2h-4l-1-5h-6l-4-3,1-7-7-8-6-3,2-5-2-5-3,2-1,3,1,5-5,1-1-9-4-7,3-3v-4l2-2h4l8,6,6,9h6l6,5ZM313,283l3,3-2,4,3,4-4,6-8,1-8-9v-6l2-2,3,1,2-2,5-1Zm52,35,5,5v2l5-1,6,2,3,4,3,1v4l3,1-2,2-9-1-1-2-5-2-2,1-5-2-9-12,5-3,2,1Zm117,54,3,6-2,3h-4v2l6,5v2h-2l-3,4H470l-1-1,4-4v-2l-4-4,4-5h2l-1-9,1-1,4,4ZM327,292l2,2-1,2,2,2,1,5h4l3-3,2,1-2,7h-5l-10-9,4-8Zm26,21v4l3,5-1,3-8-4,1-5,4-4ZM98,59l-2,6-4,2-5-2-6-6-2-3V35l4,1,1,6,5,5,2,9,4-2,4,4ZM257,849h-6l-2-8h7l3-2,1,1-4,8Zm-27,20h-4l-1-7h9l-2,2v4ZM192,229l1,5-8,2-3-1v-4l3-3Zm148,85,3,1v4h-4l-4-5Zm90,22,3,5-1,3h-2l-3-5v-2ZM284,262l2,2-2,4-3-3Zm76,27,4,4-2,2-4-6ZM179,196l2,4-4,2-3-3,3-3ZM90,11l-2,5-3,1H83l-4-4V9l2-2,9,3ZM254,225l3,3v2l-5-1v-4ZM134,967v6l-3,2-3-1v-6l2-2,3,1ZM420,337l2,2-4,2-1-3,1-2h2ZM284,277l1,3-1,2h-2l-1-1Zm-14-31h2l-3,3-4-2,5-2Zm-66-44,1,1-4,4-2-2,3-3Zm34,655h-3v-4h2l1,3Zm-57,29h-3l-1-3,5,2ZM163,150l2,2-1,1-5-1,2-3Zm-44-7,1,5h-4l-2-3,3-3,1,1Zm152,97-1-1,2-2,1,3Zm57,69,1,1-3,1v-2ZM247,851l-3-1h3ZM477,411l-1,3-2-2,3-2ZM356,282l2,2h-2ZM144,912h-3l1-2,2,1ZM260,220l1,1-2-1,1-1ZM99,11l-2,2-2-2,3-1ZM270,229l1-1-1,2Zm9,53v2l-1-1Zm170,71,1,1Zm-97-72,1,1ZM205,243l1,1h-2Z"/>
    </g>
    <g class="cls-1">
      <path class="cls-2" d="M240,247l5,1v2l10,10v4l11,1-1,4,3,3-1,6-3,3h-2l-3-3v-4l-3,3h-2l-1-2h-8l-6-4-3,1-4-4-3,1-4-2-9-7-5-1-4-8,2-5,4,2,9-6,4,2,1,4,9,1,3-2Zm73,37v10l-2,3-1-1-3,2-5-5v-2l5-8ZM120,971l-3,3v2l8,9v2l-4,2-4-4-3,3-4,1-6-7-1-14,8-9v-2l4-2,3,3-1,3,4,5Zm36-792,2,2-1,10-7,3-7-7-2-4v-6l3-3h2l7,5Zm123,54,1,3h2v2l4,2v2H275l-1-5Zm143,91,2,2-4,4h-7l-1-7,2-2,7,3ZM246,212v6l-2,1,1,5h-4l-1-11,1-2,4,1Zm-11-3,2,1-2,4,1,5-7,1v-8h4ZM364,319l2,4-5,1-2-3,1-2Zm-76-45,3,3-2,2-3-1,1-4ZM109,1016l-6,7-3-1v-4l5-5,4,2Zm6-14v2h-2l-2,4h-2v-7l3-3h2l1,3ZM261,242l2,2-1,2-3-3,1-2ZM479,386l3,2-2,2-4-2,1-3Zm15,22,2,2-1,1h-4l-2-2v-2Zm22,24v6l-4-4v-2ZM275,263l1,3h-2Zm100,64-1,3-1-2Zm66,11v-2l3,1Zm64,95,1,1-3,1-1-3h2ZM283,247l1,3-2-1Zm-16-9,1,3-2-2Zm85,76,1,1-2,1v-2ZM94,60l1,1-3,1Z"/>
    </g>
    <g class="cls-1">
      <path class="cls-2" d="M243,249l10,11,1,5,8,1-1,5-7-1-3,3h-2l-14-7-3-8,2-2v2h4l1-8Zm-19-4,4,6-2,4,2,2-1,3-5-1-3-3v-8l4-4Zm87,39,2,2-3,4-4,2-1-1,2-2v-4h4ZM153,182h2l1,3-2,2h-2l-7-7,2-2,6,3ZM118,969l-4,2-2-6,1-1,5,4ZM264,272v2l-2-3Z"/>
    </g>
  </g>
</svg>
