<svg aria-hidden="true" style="position: absolute; width: 0; height: 0; overflow: hidden;" version="1.1" xmlns="http://www.w3.org/2000/svg" xmlns:xlink="http://www.w3.org/1999/xlink">
<defs>
<symbol id="icon-fullscreen-exit" viewBox="0 0 24 24">
<title>fullscreen-exit</title>
<path d="M15.343 8.657h2.517v1.652h-4.168v-4.168h1.652v2.517zM13.691 17.859v-4.168h4.168v1.652h-2.517v2.517h-1.652zM8.657 8.657v-2.517h1.652v4.168h-4.168v-1.652h2.517zM6.141 15.343v-1.652h4.168v4.168h-1.652v-2.517h-2.517z"></path>
</symbol>
<symbol id="icon-fullscreen" viewBox="0 0 24 24">
<title>fullscreen</title>
<path d="M13.691 6.141h4.168v4.168h-1.652v-2.517h-2.517v-1.652zM16.208 16.208v-2.517h1.652v4.168h-4.168v-1.652h2.517zM6.141 10.309v-4.168h4.168v1.652h-2.517v2.517h-1.652zM7.792 13.691v2.517h2.517v1.652h-4.168v-4.168h1.652z"></path>
</symbol>
<symbol id="icon-arrow-right" viewBox="0 0 24 24">
<title>arrow-right</title>
<path d="M17.442 11.118l-5.353-5.353 1.247-1.247 7.482 7.482-7.482 7.482-1.247-1.247 5.353-5.353h-14.26v-1.764z"></path>
</symbol>
<symbol id="icon-arrow-left" viewBox="0 0 24 24">
<title>arrow-left</title>
<path d="M6.503 11.109l5.407-5.407-1.259-1.259-7.557 7.557 7.557 7.557 1.259-1.259-5.407-5.407h14.403v-1.781h-14.403z"></path>
</symbol>
<symbol id="icon-annotations-on" viewBox="0 0 24 24">
<title>annotations-on</title>
<path d="M13.661 8.821l-0.911 2.429-0.911-2.429-1.714-0.571 1.714-0.571 0.911-2.429 0.911 2.429 1.714 0.571-1.714 0.571zM16.661 13.679l-0.911-2.429-0.911 2.429-1.714 0.571 1.714 0.571 0.911 2.429 0.911-2.429 1.714-0.571-1.714-0.571zM11.127 16.748c-0.448 1.794-2.070 3.123-4.002 3.123-2.278 0-4.125-1.847-4.125-4.125 0-1.932 1.329-3.555 3.123-4.002 0.264-0.066 0.537-0.106 0.818-0.119-0.123 0.351-0.191 0.728-0.191 1.121 0 1.864 1.511 3.375 3.375 3.375 0.393 0 0.77-0.067 1.121-0.191-0.012 0.281-0.053 0.554-0.119 0.818v0zM20.151 9.321l1.224 0.429-1.224 0.429-0.651 1.821-0.651-1.821-1.224-0.429 1.224-0.429 0.651-1.821 0.651 1.821z"></path>
</symbol>
<symbol id="icon-annotations-off" viewBox="0 0 24 24">
<title>annotations-off</title>
<path d="M13.661 8.821l-0.911 2.429-0.911-2.429-1.714-0.571 1.714-0.571 0.911-2.429 0.911 2.429 1.714 0.571-1.714 0.571zM16.661 13.679l-0.911-2.429-0.911 2.429-1.714 0.571 1.714 0.571 0.911 2.429 0.911-2.429 1.714-0.571-1.714-0.571zM11.127 16.748v0c0.066-0.264 0.106-0.537 0.119-0.818-0.351 0.123-0.728 0.191-1.121 0.191-1.864 0-3.375-1.511-3.375-3.375 0-0.393 0.067-0.77 0.191-1.121-0.281 0.012-0.554 0.053-0.818 0.119-1.794 0.448-3.123 2.070-3.123 4.002 0 2.278 1.847 4.125 4.125 4.125 1.932 0 3.555-1.329 4.002-3.123zM3.75 15.746c0-1.471 0.941-2.722 2.254-3.184-0.003 0.061-0.004 0.123-0.004 0.184 0 2.278 1.847 4.125 4.125 4.125 0.062 0 0.123-0.001 0.184-0.004-0.462 1.313-1.713 2.254-3.184 2.254-1.864 0-3.375-1.511-3.375-3.375v0zM20.151 9.321l1.224 0.429-1.224 0.429-0.651 1.821-0.651-1.821-1.224-0.429 1.224-0.429 0.651-1.821 0.651 1.821z"></path>
</symbol>
</defs>
</svg>
